<?xml version="1.0" encoding="UTF-8"?>
<svg width="580px" height="580px" viewBox="0 0 580 580" version="1.1" xmlns="http://www.w3.org/2000/svg" xmlns:xlink="http://www.w3.org/1999/xlink">
    <title>单logo备份</title>
    <g id="页面-1" stroke="none" stroke-width="1" fill="none" fill-rule="evenodd">
        <g id="画板备份-4" transform="translate(-356.000000, -2120.000000)" fill="#6366F1">
            <path d="M635.642504,2120 C801.525368,2120 936,2249.83742 936,2410 C936,2570.16258 801.525368,2700 635.642504,2700 C508.524177,2700 399.849921,2623.75468 356.000407,2516.04534 C394.090218,2548.85925 444.326766,2568.80374 499.387972,2568.80374 C560.783738,2568.80374 616.180876,2544.00621 655.421645,2504.21862 L693.735005,2541.27686 C693.928811,2541.47107 694.126279,2541.66184 694.327299,2541.84907 L694.327299,2541.84907 L694.366127,2541.8865 C698.453697,2545.67346 703.997057,2548 710.102218,2548 C720.699519,2548 729.604124,2540.99017 732.136681,2531.5 L732.136681,2531.5 L783.313498,2355.5 C783.775881,2353.73922 784.024287,2351.89767 784.024287,2350 C784.024287,2337.84974 773.840891,2328 761.279035,2328 C759.31701,2328 757.413008,2328.24028 755.592722,2328.6875 L755.592722,2328.6875 L755.138977,2328.81094 C755.123977,2328.815 755.108984,2328.81907 755.093997,2328.82316 L755.093997,2328.82316 L573.288202,2378.27884 C563.651561,2380.83752 556.571767,2389.36906 556.571767,2399.5 C556.571767,2405.71392 559.235269,2411.32614 563.518251,2415.32682 L563.518251,2415.32682 L602.925604,2453.44427 C588.283838,2457.59363 572.790112,2459.81962 556.757908,2459.81962 C466.380347,2459.81962 393.114858,2389.08061 393.114858,2301.81962 C393.114858,2243.32184 426.040785,2192.24913 474.975224,2164.93552 C521.437902,2136.47796 576.547158,2120 635.642504,2120 Z" id="单logo备份"></path>
        </g>
    </g>
</svg>